<svg width="678" height="515" viewBox="0 0 678 515" fill="none" xmlns="http://www.w3.org/2000/svg">
<g clip-path="url(#clip0_2_1153)">
<path d="M364.713 514.303C500.998 514.303 611.479 482.686 611.479 443.684C611.479 404.683 500.998 373.065 364.713 373.065C228.428 373.065 117.947 404.683 117.947 443.684C117.947 482.686 228.428 514.303 364.713 514.303Z" fill="#F5F5F5"/>
<path d="M599.494 168.97C599.494 168.97 555.781 212.753 580.457 277.723C605.134 342.692 538.155 450.739 538.155 450.739C538.155 450.739 538.86 450.633 540.206 450.4C629.987 434.525 674.595 331.676 624.671 255.273C606.135 226.87 590.871 193.545 599.494 168.97Z" fill="#2091F9"/>
<path d="M599.494 168.97C599.494 168.97 574.817 222.64 599.494 266.424C624.17 310.207 603.724 433.084 538.155 450.739" stroke="#535461" stroke-width="2" stroke-miterlimit="10"/>
<path d="M677.345 346.061C677.345 346.061 627.463 338.102 622.915 382.881C618.368 427.661 527.029 433.861 527.029 433.861C527.029 433.861 527.621 434.271 528.742 435.005C604.182 484.608 676.301 466.6 665.437 400.734C661.369 376.25 661.693 351.654 677.345 346.061Z" fill="#2091F9"/>
<path opacity="0.2" d="M677.345 346.061C677.345 346.061 627.463 338.102 622.915 382.881C618.368 427.661 527.029 433.861 527.029 433.861C527.029 433.861 527.621 434.271 528.742 435.005C604.182 484.608 676.301 466.6 665.437 400.734C661.369 376.25 661.693 351.654 677.345 346.061Z" fill="#F5F5F5"/>
<path d="M677.345 346.061C677.345 346.061 638.624 354.577 641.803 389.844C644.983 425.111 584.279 467.37 527.001 433.847" stroke="#535461" stroke-width="2" stroke-miterlimit="10"/>
<path opacity="0.2" d="M107.244 0.359615C101.561 0.161882 95.7377 0.359615 90.4075 2.35107C75.9047 7.76754 69.0305 25.4858 71.2655 40.8313C73.5005 56.1768 82.6943 69.5026 92.2336 81.7126C101.773 93.9227 112.109 105.977 117.34 120.553C119.949 127.834 121.169 135.99 118.518 143.257C114.429 154.464 102.097 160.728 90.2595 162.028C78.4218 163.327 66.5347 160.792 54.6546 159.909C49.6699 159.556 44.5443 159.514 39.8486 161.152C34.6947 162.939 30.401 166.583 26.4528 170.382C11.0475 185.282 -1.28379 205.621 0.711494 226.976C2.96764 251.184 23.0897 270.322 45.1294 280.583C52.4267 283.987 60.1469 286.741 66.5699 291.599C83.491 304.41 87.2912 328.413 85.6062 349.606C83.9211 370.798 78.182 392.012 81.3759 413.021C85.1338 437.456 101.766 459.524 124.2 469.834C144.189 479.015 169.204 478.443 186.95 465.456C195.601 459.1 202.143 450.336 207.833 441.248C216.421 427.536 223.389 412.872 228.597 397.549C231.071 390.268 233.398 382.436 239.172 377.373C242.698 374.259 247.266 372.514 251.786 371.159C265.407 367.077 279.755 365.954 293.503 362.324C307.252 358.694 321.085 351.929 328.558 339.832C339.134 322.664 334.199 300.709 334.248 280.512C334.333 234.497 361.822 193.298 371.968 148.455C375.282 133.794 376.516 117.573 369.113 104.501C364.079 95.5822 355.597 89.2265 346.678 84.2832C327.078 73.3796 304.798 68.5281 282.878 63.8037C252.413 57.2502 215.419 56.4028 191.807 35.203C169.147 14.8647 138.146 0.359615 107.244 0.359615Z" fill="#2091F9"/>
<g opacity="0.5">
<path opacity="0.5" d="M217.753 178.468C217.752 167.376 216.017 156.354 212.613 145.799L204.153 119.522C204.153 119.084 204.153 118.654 204.153 118.223C204.414 101.38 191.307 92.9765 186.259 93.8875C181.091 94.8197 166.75 87.6165 166.75 87.6165V87.8143C165.767 86.6805 164.88 85.4664 164.099 84.1844C166.577 82.3769 168.669 80.0916 170.252 77.4627C171.835 74.8338 172.878 71.9144 173.319 68.8761C173.76 65.8378 173.59 62.7419 172.819 59.7704C172.048 56.7989 170.692 54.0117 168.83 51.5726C170.38 50.4061 171.562 48.8175 172.235 46.9965C173.406 43.6986 172.51 39.9346 170.607 36.9969C169.797 35.7705 168.851 34.6404 167.786 33.6283C166.174 32.0282 164.413 30.5858 162.527 29.3206C157.824 26.058 152.656 23.2544 147.016 22.2587C146.04 22.0279 145.024 22.0279 144.048 22.2587C143.2 22.6011 142.394 23.0369 141.643 23.5581C137.78 25.7614 132.971 24.808 128.515 24.575C124.059 24.342 118.645 25.5919 117.235 29.7796C116.797 31.0719 116.826 32.4702 116.53 33.7978C115.825 37.0463 113.322 39.5674 111.39 42.2721C109.458 44.9768 108.013 48.6278 109.62 51.5656C110.17 52.5542 111.03 53.4652 111.03 54.5951C111.03 55.4072 110.551 56.1346 110.325 56.9114C109.839 58.6769 110.755 60.4424 112.165 61.7206C112.773 62.3767 113.488 62.9237 114.28 63.3377C116.515 64.4818 119.089 64.8349 121.366 65.8941C122.503 66.4289 123.546 67.1443 124.454 68.0127C125.567 69.1796 126.437 70.5567 127.013 72.0638C127.589 73.5708 127.86 75.1777 127.81 76.7906L128.283 76.8401C128.283 76.9813 128.283 77.1155 128.283 77.2567C128.776 77.3132 129.298 77.3627 129.813 77.3838C130.553 78.581 131.4 79.7084 132.344 80.7524C132.184 81.355 132.003 81.967 131.801 82.5885C130.144 83.7396 116.593 92.7788 101.181 90.6037C84.7319 88.2803 75.3266 160.312 75.3266 160.312C74.7169 164.431 74.42 168.591 74.4382 172.755C74.3677 183.348 76.5886 197.21 88.9622 195.169L95.5403 193.001V228.628C95.5403 228.628 96.478 238.388 93.1925 244.871C89.907 251.354 103.536 249.051 103.536 249.051C103.536 249.051 104.057 249.595 105.016 250.52L104.713 251.375L105.115 251.784C103.322 257.922 100.906 263.859 97.9022 269.503L98.29 269.7C98.0432 270.174 97.9022 270.407 97.9022 270.407C97.9022 270.407 102.964 272.998 109.93 276.339C115.528 295.293 127.782 339.189 123.749 347.551L123.862 347.791C124.616 349.359 128.833 358.603 127.98 367.07C127.211 374.64 137.674 409.039 141.58 421.531L139.733 421.905L146.311 445.605L144.901 460.944C144.901 460.944 136.912 482.32 155.709 478.139C174.506 473.959 169.338 456.763 169.338 456.763L169.81 421.905C169.81 421.905 167.998 420.896 165.763 419.928C164.226 415.769 160.877 405.938 160.877 399.138C160.877 390.31 154.764 352.197 154.764 352.197V352.12V351.971V351.929L154.729 351.421V351.336C154.729 350.863 154.651 350.213 154.595 349.422V349.38C153.89 339.076 151.775 304.071 153.319 285.823C154.677 284.895 156.089 284.051 157.549 283.295C162.125 294.876 173.92 326.167 173.166 339.295C172.228 355.538 172.933 342.784 173.166 340.708C173.236 340.065 173.286 340.842 173.307 342.586C173.307 342.904 173.307 343.257 173.307 343.631C173.307 344.006 173.307 344.422 173.307 344.853C173.307 345.284 173.307 345.75 173.307 346.265C173.307 346.51 173.307 346.76 173.307 347.014C173.307 347.522 173.307 348.055 173.307 348.61C173.307 348.888 173.307 349.17 173.307 349.457C173.307 350.87 173.307 352.438 173.258 354.069C173.258 354.394 173.258 354.723 173.258 355.058C173.258 356.053 173.258 357.07 173.208 358.101C173.208 359.514 173.152 360.884 173.124 362.303C173.053 365.481 172.962 368.694 172.849 371.702C172.849 372.037 172.837 372.369 172.813 372.698C172.79 373.357 172.764 374.002 172.736 374.633C172.708 375.264 172.679 375.881 172.651 376.483C172.623 377.081 172.593 377.663 172.56 378.228C172.524 378.891 172.482 379.527 172.447 380.134L169.895 379.767L169.352 385.643C168.496 394.971 169.7 404.373 172.877 413.184C173.751 415.599 174.428 417.598 174.576 418.311C175.048 420.634 174.576 437.378 174.576 437.378C174.576 437.378 177.396 459.22 190.559 455.033C196.482 453.147 199.358 447.413 200.733 441.665C202.259 435.001 201.69 428.028 199.105 421.701C197.236 416.997 195.326 410.402 196.672 405.303C199.02 396.476 199.02 383.927 199.02 383.927L197.568 383.722C197.93 383.033 198.257 382.325 198.548 381.603C198.548 381.603 198.075 349.535 202.306 345.354C204.632 343.052 204.421 337.523 203.716 333.003C202.708 326.463 202.472 319.826 203.011 313.23C203.3 309.833 203.716 306.874 204.202 305.822C205.443 303.365 206.684 278.591 201.192 266.671L202.32 266.318L202.143 265.442L202.32 265.386C203.148 267.6 204.089 269.771 205.14 271.89C205.417 272.108 205.736 272.266 206.078 272.356C221.3 269.679 221.913 255.45 221.067 247.681C221.708 247.992 222.061 248.19 222.061 248.19L223.471 227.71C224.916 224.441 225.452 220.267 225.417 215.755C225.48 199.625 217.753 178.468 217.753 178.468ZM200.973 236.679C199.93 227.76 198.484 219.363 198.484 219.363L191.434 194.265V185.127L202.616 226.934L200.973 236.679Z" fill="url(#paint0_linear_2_1153)"/>
</g>
<path d="M169.274 373.771L168.752 379.513C167.929 388.635 169.096 397.828 172.172 406.454C173.011 408.82 173.667 410.769 173.808 411.468C174.259 413.742 173.808 430.09 173.808 430.09C173.808 430.09 176.529 451.438 189.227 447.349C194.938 445.513 197.688 439.899 199.041 434.285C200.509 427.774 199.958 420.969 197.462 414.78C195.657 410.183 193.81 403.721 195.114 398.756C197.384 390.127 197.384 377.867 197.384 377.867L169.274 373.771Z" fill="#5A5773"/>
<path d="M155.674 275.216C155.674 275.216 173.356 318.364 172.447 334.253C171.537 350.142 172.221 337.657 172.447 335.616C172.849 331.979 172.447 375.163 171.086 380.106C171.086 380.106 189.678 393.728 196.933 375.565C196.933 375.565 196.482 344.232 200.557 340.143C202.799 337.897 202.581 332.488 201.918 328.074C200.94 321.689 200.703 315.213 201.213 308.774C201.488 305.455 201.868 302.531 202.362 301.535C203.723 298.81 205.083 267.928 196.919 259.298L155.674 275.216Z" fill="#605D82"/>
<path opacity="0.1" d="M173.356 380.127C174.717 375.134 175.119 331.979 174.717 335.637C174.491 337.678 173.808 350.171 174.717 334.274C175.627 318.378 157.944 275.237 157.944 275.237L197.504 259.997C197.321 259.764 197.131 259.545 196.94 259.341L155.681 275.237C155.681 275.237 173.363 318.385 172.454 334.274C171.544 350.164 172.228 337.678 172.454 335.637C172.856 332 172.454 375.184 171.093 380.127C171.093 380.127 178.517 385.565 185.815 384.986C179.321 384.499 173.356 380.127 173.356 380.127Z" fill="black"/>
<path d="M140.254 415.098L146.6 438.261L145.239 453.246C145.239 453.246 137.533 474.135 155.667 470.046C173.801 465.957 168.816 449.157 168.816 449.157L169.267 415.098C169.267 415.098 162.012 411.009 158.839 411.468C155.667 411.927 140.254 415.098 140.254 415.098Z" fill="#5A5773"/>
<path d="M108.971 264.319C108.971 264.319 129.827 331.986 124.842 342.431C124.842 342.431 129.827 352.423 128.924 361.498C128.022 370.573 143.434 419.172 143.434 419.172L166.108 415.084C166.108 415.084 160.665 401.461 160.665 392.832C160.665 384.202 154.771 346.929 154.771 346.929C154.771 346.929 149.787 278.803 155.681 271.537L108.971 264.319Z" fill="#605D82"/>
<g opacity="0.1">
<path opacity="0.1" d="M153.918 277.073C150.16 292.496 154.313 349.253 154.313 349.253C154.313 349.253 160.207 386.49 160.207 395.155C160.207 401.744 163.373 411.235 164.875 415.359L166.101 415.14C166.101 415.14 160.658 401.518 160.658 392.888C160.658 384.259 154.764 346.986 154.764 346.986C154.764 346.986 150.971 295.116 153.918 277.073Z" fill="black"/>
<path opacity="0.1" d="M124.842 342.431L124.955 342.664C124.99 342.431 125.025 342.184 125.047 341.958C124.986 342.119 124.918 342.277 124.842 342.431Z" fill="black"/>
<path opacity="0.1" d="M154.651 273.768C154.857 272.985 155.204 272.245 155.674 271.586L108.971 264.319C108.971 264.319 109.246 265.202 109.719 266.777L154.651 273.768Z" fill="black"/>
</g>
<path d="M217.788 239.793C217.788 239.793 224.592 265.216 204.188 268.86C203.857 268.774 203.547 268.62 203.278 268.408C203.278 268.408 191.49 245.245 200.557 236.163L217.788 239.793Z" fill="#FAC3CA"/>
<path d="M134.36 70.8656C134.36 70.8656 135.721 89.9327 120.76 99.0214C105.799 108.11 152.487 133.081 152.487 133.081L176.973 94.0215C176.973 94.0215 166.553 95.3704 160.207 77.2213L134.36 70.8656Z" fill="#FAC3CA"/>
<path opacity="0.1" d="M124.384 100.37C124.384 100.37 147.509 148.511 168.365 103.096L200.557 262.949C200.557 262.949 150.675 278.394 150.231 285.66C149.787 292.927 99.9116 267.045 99.9116 267.045C99.9116 267.045 110.79 247.06 108.076 234.801C105.362 222.541 124.384 100.37 124.384 100.37Z" fill="black"/>
<path d="M124.384 99.4593C124.384 99.4593 147.509 147.6 168.365 102.185L200.557 262.045C200.557 262.045 150.675 277.49 150.231 284.756C149.787 292.023 99.9116 266.134 99.9116 266.134C99.9116 266.134 110.79 246.149 108.076 233.889C105.362 221.63 124.384 99.4593 124.384 99.4593Z" fill="#E1E7EF"/>
<path d="M147.058 427.816C147.058 427.816 141.164 414.646 154.764 414.646C168.365 414.646 166.101 426.453 166.101 426.453L147.058 427.816Z" fill="#5A5773"/>
<path d="M177.89 393.75C177.89 393.75 172.447 379.668 186.054 379.216C199.662 378.764 192.858 391.928 192.858 391.928L177.89 393.75Z" fill="#5A5773"/>
<path opacity="0.1" d="M166.327 89.2266C166.327 89.2266 180.153 96.2885 185.145 95.3563C190.136 94.4241 203.279 103.075 202.376 120.334L210.569 146.082C213.846 156.406 215.511 167.175 215.504 178.009C215.504 178.009 227.292 210.705 220.947 225.239L219.586 245.224C219.586 245.224 209.159 239.32 198.273 241.135L201.015 224.815L188.748 178.482L168.343 128.978L166.327 89.2266Z" fill="black"/>
<path d="M166.327 88.3297C166.327 88.3297 180.153 95.3916 185.145 94.4594C190.136 93.5273 203.279 102.178 202.376 119.437L210.569 145.185C213.846 155.509 215.511 166.278 215.504 177.112C215.504 177.112 227.292 209.808 220.947 224.342L219.586 244.327C219.586 244.327 209.159 238.423 198.273 240.238L200.994 223.89L188.748 177.571L168.365 128.067L166.327 88.3297Z" fill="#67647E"/>
<path opacity="0.1" d="M189.227 143.511V194.83L196.031 219.356C196.031 219.356 200.564 246.149 199.203 254.327C197.843 262.504 176.078 264.319 170.184 257.504C164.289 250.69 167.462 192.535 167.462 192.535L166.327 107.404L167.237 104.678L189.227 143.511Z" fill="black"/>
<path d="M190.158 141.245V192.563L196.961 217.089C196.961 217.089 201.495 243.882 200.134 252.06C198.773 260.237 177.008 262.052 171.114 255.238C165.22 248.423 168.393 190.268 168.393 190.268L167.258 105.116L190.158 141.245Z" fill="#67647E"/>
<path opacity="0.1" d="M98.7694 183.934L113.279 229.13L106.476 248.43C106.476 248.43 138.668 282.489 159.072 266.141C159.072 266.141 161.342 196.652 156.802 180.304C152.261 163.956 130.504 108.979 130.504 108.979L125.998 94.4666L101.97 108.089L98.7694 183.934Z" fill="black"/>
<path d="M97.6343 181.66V226.15C97.6343 226.15 98.5438 235.69 95.3641 242.046C92.1843 248.402 105.34 246.135 105.34 246.135C105.34 246.135 137.533 280.194 157.937 263.846C157.937 263.846 160.207 194.357 155.667 178.009C151.126 161.66 129.368 106.684 129.368 106.684L124.835 92.1502L100.807 105.773L97.6343 181.66Z" fill="#67647E"/>
<path opacity="0.1" d="M132.774 84.2479C132.774 84.2479 118.948 94.4665 103.077 92.1926C87.2067 89.9186 78.1398 160.319 78.1398 160.319C78.1398 160.319 72.2456 196.652 91.2889 193.474L133.458 179.393C133.458 179.393 124.391 169.852 125.752 157.593L105.34 165.763L106.257 126.711L132.774 84.2479Z" fill="black"/>
<path opacity="0.1" d="M79.0422 159.408C79.0422 159.408 73.148 195.741 92.1913 192.563L134.36 178.482C134.36 178.482 125.293 168.948 126.654 156.682L106.257 164.86L79.0422 159.408Z" fill="black"/>
<path d="M125.653 161.47C125.653 161.47 139.803 142.833 150.224 151.781C160.644 160.728 129.39 177.126 129.39 177.126L125.653 161.47Z" fill="#FAC3CA"/>
<path d="M132.774 83.337C132.774 83.337 118.948 93.5556 103.077 91.2817C87.2067 89.0077 78.1398 159.408 78.1398 159.408C78.1398 159.408 72.2456 195.741 91.2889 192.563L133.458 178.482C133.458 178.482 124.391 168.941 125.752 156.682L105.34 164.86L106.257 125.8L129.383 106.733L132.774 83.337Z" fill="#67647E"/>
<path opacity="0.1" d="M160.658 78.1112L134.811 71.7555C134.811 71.7555 136.158 73.2809 134.586 79.2482C138.746 84.0291 143.857 90.3777 150.682 90.3777C155.566 90.3869 160.321 88.8084 164.233 85.8793C162.773 83.4224 161.575 80.8188 160.658 78.1112Z" fill="black"/>
<path d="M150.231 89.4737C162.753 89.4737 172.905 79.3057 172.905 66.7627C172.905 54.2197 162.753 44.0516 150.231 44.0516C137.708 44.0516 127.556 54.2197 127.556 66.7627C127.556 79.3057 137.708 89.4737 150.231 89.4737Z" fill="#FAC3CA"/>
<path opacity="0.1" d="M158.825 56.9043C164.085 56.0075 169.866 53.67 171.629 48.6278C172.757 45.4005 171.897 41.7283 170.057 38.8541C168.217 35.9799 165.509 33.7696 162.717 31.7922C158.184 28.6003 153.185 25.8602 147.728 24.8998C146.787 24.6745 145.806 24.6745 144.865 24.8998C144.047 25.2353 143.269 25.6617 142.546 26.171C138.816 28.3248 134.177 27.3927 129.855 27.1667C125.533 26.9407 120.351 28.1624 118.99 32.2513C118.567 33.5153 118.595 34.8783 118.285 36.1777C117.58 39.3555 115.19 41.8272 113.35 44.4754C111.51 47.1236 110.093 50.704 111.644 53.557C112.172 54.5245 113.054 55.4143 113.054 56.5159C112.918 57.2989 112.681 58.0609 112.349 58.7828C111.707 61.1273 113.575 63.4931 115.733 64.6089C117.89 65.7246 120.372 66.0707 122.572 67.1088C124.631 68.1264 126.355 69.7149 127.538 71.6854C128.722 73.6559 129.315 75.9255 129.249 78.2242C131.251 78.4572 133.585 78.5773 134.938 77.0802C135.545 76.4093 135.841 75.5124 136.391 74.7992C137.096 73.867 138.196 73.3162 139.098 72.5676C143.843 68.6624 140.473 63.2671 143.159 59.0582C144.569 56.8902 146.811 57.554 149.082 57.5893C152.344 57.6658 155.606 57.4364 158.825 56.9043Z" fill="black"/>
<path d="M158.374 56.4523C163.634 55.5554 169.415 53.218 171.178 48.1758C172.306 44.9485 171.446 41.2763 169.606 38.4021C167.765 35.5279 165.058 33.3175 162.266 31.3402C157.733 28.1482 152.734 25.4082 147.277 24.4478C146.336 24.2225 145.355 24.2225 144.414 24.4478C143.596 24.7833 142.818 25.2096 142.095 25.7189C138.365 27.8728 133.726 26.9407 129.404 26.7147C125.082 26.4887 119.9 27.7104 118.539 31.7992C118.116 33.0633 118.144 34.4263 117.834 35.7257C117.129 38.9035 114.739 41.3752 112.899 44.0234C111.058 46.6716 109.641 50.252 111.192 53.105C111.721 54.0725 112.602 54.9622 112.602 56.0639C112.466 56.8469 112.229 57.6089 111.897 58.3308C111.256 60.6753 113.124 63.0411 115.282 64.1568C117.439 65.2726 119.921 65.6186 122.121 66.6567C124.188 67.6734 125.919 69.265 127.107 71.2413C128.295 73.2175 128.889 75.4947 128.819 77.8004C130.821 78.0335 133.155 78.1535 134.508 76.6564C135.115 75.9855 135.411 75.0886 135.961 74.3754C136.666 73.4432 137.766 72.8924 138.668 72.1438C143.413 68.2386 140.043 62.8433 142.729 58.6344C144.139 56.4664 146.381 57.1303 148.652 57.1656C151.907 57.2314 155.162 56.9926 158.374 56.4523Z" fill="#4A4347"/>
<path opacity="0.1" d="M185.822 132.841C185.822 132.841 190.806 158.73 188.543 168.722C187.16 174.535 187.365 180.614 189.135 186.321" fill="black"/>
<path opacity="0.1" d="M105.242 143.737C105.242 143.737 103.07 160.997 106.687 164.626L105.242 143.737Z" fill="black"/>
<path d="M231.847 356.435C232.127 356.435 232.396 356.323 232.595 356.124C232.793 355.926 232.905 355.656 232.905 355.375C232.905 355.094 232.793 354.825 232.595 354.626C232.396 354.428 232.127 354.316 231.847 354.316C231.567 354.316 231.298 354.428 231.099 354.626C230.901 354.825 230.789 355.094 230.789 355.375C230.789 355.656 230.901 355.926 231.099 356.124C231.298 356.323 231.567 356.435 231.847 356.435Z" fill="black"/>
<g opacity="0.5">
<path opacity="0.5" d="M557.487 233.028V232.442L365.122 84.2833C365.001 84.1932 364.854 84.1447 364.702 84.1447C364.551 84.1447 364.404 84.1932 364.283 84.2833L171.911 232.442V462.095H172.278V462.462H557.861V232.809L557.487 233.028Z" fill="url(#paint1_linear_2_1153)"/>
</g>
<path d="M550.845 455.689H178.581V233.946L364.713 90.5895L550.845 233.946V455.689Z" fill="white"/>
<path d="M537.45 442.547H191.977V236.764L364.713 103.725L537.45 236.764V442.547Z" fill="#E0E0E0"/>
<path d="M423.315 100.65L212.576 155.986L282.842 424.447L493.58 369.11L423.315 100.65Z" fill="#2091F9"/>
<path d="M474.7 141.435H256.841V418.968H474.7V141.435Z" fill="#F5F5F5"/>
<path opacity="0.05" d="M180.343 234.299L366.476 345.171L180.343 456.043V234.299Z" fill="black"/>
<path d="M178.933 234.299L365.066 345.171L178.933 456.043V234.299Z" fill="white"/>
<path opacity="0.05" d="M549.788 234.299L363.656 345.171L549.788 456.043V234.299Z" fill="black"/>
<path d="M551.198 234.299L365.066 345.171L551.198 456.043V234.299Z" fill="white"/>
<path opacity="0.05" d="M178.933 452.512L365.066 307.037L551.198 452.512H178.933Z" fill="black"/>
<path d="M178.933 456.043L365.066 310.568L551.198 456.043H178.933Z" fill="white"/>
<path d="M216.759 472.885C216.759 472.885 207.41 441.107 218.515 417.704C223.233 407.921 224.655 396.869 222.569 386.207C221.539 381.155 220.05 376.207 218.12 371.427" stroke="#535461" stroke-width="2" stroke-miterlimit="10"/>
<path d="M225.022 356.639C225.022 360.537 217.972 371.829 217.972 371.829C217.972 371.829 210.921 360.53 210.921 356.639C210.921 354.766 211.664 352.97 212.986 351.646C214.308 350.321 216.102 349.577 217.972 349.577C219.842 349.577 221.635 350.321 222.957 351.646C224.279 352.97 225.022 354.766 225.022 356.639Z" fill="#6C63FF"/>
<path d="M236.691 378.221C234.575 381.49 222.533 387.14 222.533 387.14C222.533 387.14 222.752 373.821 224.867 370.551C225.921 369.072 227.505 368.058 229.287 367.718C231.069 367.378 232.914 367.74 234.437 368.728C235.96 369.716 237.044 371.254 237.464 373.022C237.883 374.79 237.607 376.652 236.691 378.221Z" fill="#6C63FF"/>
<path d="M236.155 415.091C232.679 416.842 219.438 415.634 219.438 415.634C219.438 415.634 226.341 404.251 229.809 402.499C230.64 402.034 231.555 401.742 232.501 401.64C233.447 401.539 234.404 401.63 235.313 401.909C236.223 402.188 237.067 402.648 237.795 403.262C238.522 403.876 239.118 404.631 239.547 405.481C239.975 406.332 240.227 407.261 240.288 408.212C240.349 409.163 240.217 410.116 239.9 411.015C239.583 411.913 239.088 412.738 238.444 413.44C237.8 414.141 237.022 414.705 236.155 415.098V415.091Z" fill="#6C63FF"/>
<path d="M229.499 442.908C226.369 445.224 213.114 446.269 213.114 446.269C213.114 446.269 217.993 433.882 221.123 431.566C222.629 430.56 224.465 430.172 226.248 430.484C228.032 430.796 229.628 431.783 230.704 433.241C231.781 434.699 232.257 436.516 232.032 438.316C231.808 440.115 230.901 441.759 229.499 442.908Z" fill="#6C63FF"/>
<path d="M207.72 387.888C210.54 390.6 223.506 393.418 223.506 393.418C223.506 393.418 220.327 380.487 217.535 377.776C216.176 376.573 214.408 375.941 212.597 376.01C210.786 376.079 209.071 376.844 207.808 378.146C206.545 379.449 205.831 381.188 205.815 383.003C205.799 384.819 206.481 386.57 207.72 387.895V387.888Z" fill="#6C63FF"/>
<path d="M200.346 420.521C203.821 422.273 217.062 421.065 217.062 421.065C217.062 421.065 210.16 409.681 206.691 407.93C205.035 407.18 203.153 407.1 201.439 407.707C199.726 408.313 198.312 409.559 197.493 411.185C196.674 412.81 196.514 414.689 197.046 416.43C197.577 418.171 198.759 419.639 200.346 420.528V420.521Z" fill="#6C63FF"/>
<path d="M197.525 453.218C200.656 455.534 213.911 456.579 213.911 456.579C213.911 456.579 209.032 444.193 205.901 441.876C205.162 441.271 204.308 440.823 203.391 440.558C202.473 440.293 201.512 440.217 200.565 440.336C199.617 440.454 198.704 440.764 197.88 441.247C197.055 441.73 196.338 442.375 195.77 443.144C195.202 443.912 194.796 444.789 194.577 445.719C194.357 446.65 194.329 447.615 194.493 448.557C194.657 449.499 195.01 450.398 195.532 451.199C196.053 452 196.731 452.687 197.525 453.218Z" fill="#6C63FF"/>
<path opacity="0.5" d="M356.958 154.147H269.532V161.209H356.958V154.147Z" fill="#6C63FF"/>
<path opacity="0.5" d="M458.484 182.394H269.532V189.456H458.484V182.394Z" fill="#6C63FF"/>
<path opacity="0.5" d="M458.484 200.755H269.532V207.817H458.484V200.755Z" fill="#6C63FF"/>
<path opacity="0.4" d="M458.484 219.116H269.532V226.178H458.484V219.116Z" fill="#6C63FF"/>
<path opacity="0.4" d="M458.484 237.477H269.532V244.539H458.484V237.477Z" fill="#6C63FF"/>
<path opacity="0.3" d="M377.404 255.838H269.532V262.9H377.404V255.838Z" fill="#6C63FF"/>
<path opacity="0.3" d="M416.886 274.199H269.532V281.261H416.886V274.199Z" fill="#6C63FF"/>
</g>
<defs>
<linearGradient id="paint0_linear_2_1153" x1="74.4453" y1="250.421" x2="225.339" y2="250.421" gradientUnits="userSpaceOnUse">
<stop stop-color="#808080" stop-opacity="0.25"/>
<stop offset="0.54" stop-color="#808080" stop-opacity="0.12"/>
<stop offset="1" stop-color="#808080" stop-opacity="0.1"/>
</linearGradient>
<linearGradient id="paint1_linear_2_1153" x1="245956" y1="280247" x2="245956" y2="77563.5" gradientUnits="userSpaceOnUse">
<stop stop-color="#808080" stop-opacity="0.25"/>
<stop offset="0.54" stop-color="#808080" stop-opacity="0.12"/>
<stop offset="1" stop-color="#808080" stop-opacity="0.1"/>
</linearGradient>
<clipPath id="clip0_2_1153">
<rect width="677" height="514" fill="white" transform="translate(0.5 0.303223)"/>
</clipPath>
</defs>
</svg>
